<svg xmlns="http://www.w3.org/2000/svg" viewBox="0 0 544 544"><path fill="#fff" d="M0 0h544v544H0z"/><circle cx="15" cy="16.1" r="8.2"/><circle cx="45.4" cy="46.8" r="8.2"/><circle cx="45.4" cy="16.1" r="11.4"/><circle cx="15" cy="46.8" r="10.3"/><circle cx="76.4" cy="16.1" r="6.1"/><circle cx="106.4" cy="16.1" r="12"/><circle cx="136.3" cy="46.8" r="12"/><circle cx="136.3" cy="16.1" r="5"/><circle cx="76.4" cy="46.8" r="5"/><circle cx="45.4" cy="76.7" r="5"/><circle cx="45.4" cy="315.4" r="5"/><circle cx="106.4" cy="46.8" r="5.9"/><circle cx="165.9" cy="16.1" r="4.1"/><circle cx="15" cy="76.7" r="4.1"/><circle cx="15" cy="437.2" r="4.1"/><circle cx="15" cy="528.2" r="4.1"/><circle cx="106.4" cy="528.2" r="4.1"/><circle cx="76.4" cy="76.7" r="4.1"/><circle cx="76.4" cy="107" r="4.1"/><circle cx="76.4" cy="136.5" r="4.1"/><circle cx="196.6" cy="197.2" r="4.1"/><circle cx="287.1" cy="437.2" r="4.1"/><circle cx="287.1" cy="197.2" r="4.5"/><circle cx="526.7" cy="197.2" r="4.1"/><circle cx="496.9" cy="226.3" r="4.1"/><circle cx="496.9" cy="406.8" r="4.1"/><circle cx="376.3" cy="468.1" r="4.1"/><circle cx="436.8" cy="468.1" r="4.1"/><circle cx="467.2" cy="468.1" r="4.9"/><circle cx="15" cy="107" r="4.9"/><circle cx="196.6" cy="136.5" r="4.9"/><circle cx="15" cy="226.3" r="4.9"/><circle cx="526.7" cy="226.3" r="4.9"/><circle cx="526.7" cy="346.8" r="4.9"/><circle cx="226.6" cy="315.4" r="4.9"/><circle cx="226.6" cy="258.8" r="4.9"/><circle cx="376.3" cy="258.8" r="4.9"/><circle cx="257.1" cy="286.2" r="4.9"/><circle cx="196.6" cy="315.4" r="4.9"/><circle cx="287.1" cy="315.4" r="4.9"/><circle cx="316" cy="315.4" r="4.9"/><circle cx="15" cy="406.8" r="4.9"/><circle cx="287.1" cy="377.9" r="4.9"/><circle cx="287.1" cy="346.8" r="4.9"/><circle cx="376.3" cy="377.9" r="4.9"/><circle cx="376.3" cy="406.8" r="4.9"/><circle cx="257.1" cy="437.2" r="4.9"/><circle cx="257.1" cy="468.1" r="4.9"/><circle cx="196.6" cy="468.1" r="4.9"/><circle cx="76.4" cy="468.1" r="4.9"/><circle cx="45.4" cy="468.1" r="4.9"/><circle cx="15" cy="498.9" r="4.9"/><circle cx="257.1" cy="498.9" r="4.9"/><circle cx="436.8" cy="498.9" r="4.9"/><circle cx="436.8" cy="528.2" r="4.9"/><circle cx="316" cy="528.2" r="4.9"/><circle cx="45.4" cy="528.2" r="4.9"/><circle cx="226.6" cy="377.9" r="4.9"/><circle cx="226.6" cy="166.4" r="4.9"/><circle cx="76.4" cy="286.2" r="4.1"/><circle cx="45.4" cy="258.8" r="4.1"/><circle cx="196.6" cy="16.1" r="11.6"/><circle cx="106.4" cy="76.7" r="9.9"/><circle cx="165.9" cy="76.7" r="9.9"/><circle cx="136.3" cy="107" r="9.9"/><circle cx="226.6" cy="107" r="9.9"/><circle cx="257.1" cy="107" r="9.9"/><circle cx="316" cy="107" r="9.9"/><circle cx="496.9" cy="166.4" r="9.9"/><circle cx="496.9" cy="197.2" r="9.9"/><circle cx="526.7" cy="286.2" r="9.9"/><circle cx="526.7" cy="528.2" r="9.9"/><circle cx="406.9" cy="498.9" r="9.9"/><circle cx="316" cy="498.9" r="9.9"/><circle cx="467.2" cy="528.2" r="9.9"/><circle cx="136.3" cy="498.9" r="9.9"/><circle cx="45.4" cy="498.9" r="9.9"/><circle cx="15" cy="468.1" r="9.9"/><circle cx="45.4" cy="406.8" r="9.9"/><circle cx="106.4" cy="406.8" r="9.9"/><circle cx="76.4" cy="406.8" r="9.1"/><circle cx="346.4" cy="197.2" r="9.9"/><circle cx="316" cy="197.2" r="9.9"/><circle cx="287.1" cy="258.8" r="9.9"/><circle cx="257.1" cy="258.8" r="9.9"/><circle cx="346.4" cy="258.8" r="9.9"/><circle cx="406.9" cy="258.8" r="9.9"/><circle cx="106.4" cy="258.8" r="9.9"/><circle cx="15" cy="346.8" r="9.9"/><circle cx="76.4" cy="346.8" r="9.9"/><circle cx="257.1" cy="346.8" r="9.9"/><circle cx="106.4" cy="286.2" r="9.9"/><circle cx="45.4" cy="286.2" r="9.9"/><circle cx="406.9" cy="346.8" r="9.9"/><circle cx="436.8" cy="346.8" r="9.9"/><circle cx="15" cy="258.8" r="9.9"/><circle cx="226.6" cy="16.1" r="5.3"/><circle cx="226.6" cy="46.8" r="6.3"/><circle cx="226.6" cy="136.5" r="6.3"/><circle cx="165.9" cy="107" r="6.3"/><circle cx="406.9" cy="107" r="6.3"/><circle cx="496.9" cy="107" r="6.3"/><circle cx="526.7" cy="136.5" r="6.3"/><circle cx="436.8" cy="136.5" r="6.3"/><circle cx="376.3" cy="136.5" r="6.3"/><circle cx="257.1" cy="136.5" r="6.3"/><circle cx="136.3" cy="136.5" r="6.3"/><circle cx="165.9" cy="166.4" r="6.3"/><circle cx="196.6" cy="166.4" r="6.3"/><circle cx="136.3" cy="197.2" r="6.3"/><circle cx="136.3" cy="226.3" r="6.3"/><circle cx="467.2" cy="226.3" r="6.3"/><circle cx="406.9" cy="226.3" r="6.3"/><circle cx="467.2" cy="258.8" r="6.3"/><circle cx="467.2" cy="286.2" r="6.3"/><circle cx="287.1" cy="286.2" r="6.3"/><circle cx="316" cy="286.2" r="6.3"/><circle cx="106.4" cy="315.4" r="6.3"/><circle cx="376.3" cy="315.4" r="6.3"/><circle cx="467.2" cy="346.8" r="6.3"/><circle cx="467.2" cy="377.9" r="6.3"/><circle cx="436.8" cy="406.8" r="6.3"/><circle cx="287.1" cy="406.8" r="6.3"/><circle cx="106.4" cy="437.2" r="6.3"/><circle cx="376.3" cy="437.2" r="6.3"/><circle cx="406.9" cy="468.1" r="6.3"/><circle cx="165.9" cy="468.1" r="6.3"/><circle cx="76.4" cy="498.9" r="6.3"/><circle cx="196.6" cy="498.9" r="6.3"/><circle cx="287.1" cy="498.9" r="6.3"/><circle cx="346.4" cy="498.9" r="6.3"/><circle cx="376.3" cy="528.2" r="6.3"/><circle cx="287.1" cy="528.2" r="6.3"/><circle cx="136.3" cy="528.2" r="6.3"/><circle cx="436.8" cy="377.9" r="5.7"/><circle cx="346.4" cy="377.9" r="5.7"/><circle cx="436.8" cy="258.8" r="6.3"/><circle cx="257.1" cy="46.8" r="6.3"/><circle cx="316" cy="46.8" r="6.3"/><circle cx="196.6" cy="46.8" r="5.3"/><circle cx="257.1" cy="16.1" r="8.2"/><circle cx="165.9" cy="46.8" r="8.2"/><circle cx="136.3" cy="76.7" r="8.2"/><circle cx="226.6" cy="76.7" r="8.2"/><circle cx="106.4" cy="107" r="8.2"/><circle cx="196.6" cy="107" r="8.2"/><circle cx="15" cy="136.5" r="8.2"/><circle cx="45.4" cy="136.5" r="8.2"/><circle cx="467.2" cy="136.5" r="8.2"/><circle cx="467.2" cy="166.4" r="8.2"/><circle cx="45.4" cy="166.4" r="8.2"/><circle cx="287.1" cy="166.4" r="8.2"/><circle cx="376.3" cy="166.4" r="8.2"/><circle cx="406.9" cy="166.4" r="8.2"/><circle cx="436.8" cy="166.4" r="8.2"/><circle cx="406.9" cy="197.2" r="8.2"/><circle cx="165.9" cy="197.2" r="8.2"/><circle cx="106.4" cy="197.2" r="8.2"/><circle cx="165.9" cy="226.3" r="8.2"/><circle cx="316" cy="226.3" r="8.2"/><circle cx="346.4" cy="226.3" r="8.2"/><circle cx="436.8" cy="226.3" r="8.2"/><circle cx="496.9" cy="258.8" r="8.2"/><circle cx="316" cy="258.8" r="7.3"/><circle cx="165.9" cy="258.8" r="8.2"/><circle cx="136.3" cy="315.4" r="8.2"/><circle cx="76.4" cy="258.8" r="8.2"/><circle cx="15" cy="286.2" r="7.2"/><circle cx="136.3" cy="286.2" r="7.2"/><circle cx="165.9" cy="286.2" r="9.8"/><circle cx="165.9" cy="315.4" r="9.8"/><circle cx="346.4" cy="406.8" r="9.8"/><circle cx="257.1" cy="406.8" r="9.8"/><circle cx="226.6" cy="406.8" r="9.8"/><circle cx="226.6" cy="286.2" r="9.8"/><circle cx="346.4" cy="286.2" r="9.8"/><circle cx="376.3" cy="286.2" r="9.6"/><circle cx="406.9" cy="286.2" r="9.6"/><circle cx="436.8" cy="286.2" r="8.6"/><circle cx="496.9" cy="286.2" r="8.6"/><circle cx="526.7" cy="315.4" r="8.6"/><circle cx="467.2" cy="315.4" r="8.6"/><circle cx="257.1" cy="315.4" r="8.6"/><circle cx="15" cy="315.4" r="8.6"/><circle cx="45.4" cy="346.8" r="8.6"/><circle cx="376.3" cy="346.8" r="8.6"/><circle cx="496.9" cy="346.8" r="8.6"/><circle cx="226.6" cy="346.8" r="8.6"/><circle cx="15" cy="377.9" r="9.1"/><circle cx="45.4" cy="377.9" r="8.6"/><circle cx="106.4" cy="377.9" r="8.6"/><circle cx="136.3" cy="406.8" r="7.5"/><circle cx="316" cy="406.8" r="7.5"/><circle cx="196.6" cy="406.8" r="8.6"/><circle cx="165.9" cy="437.2" r="9.8"/><circle cx="346.4" cy="437.2" r="9.8"/><circle cx="346.4" cy="468.1" r="10.4"/><circle cx="226.6" cy="528.2" r="9.6"/><circle cx="257.1" cy="528.2" r="9.6"/><circle cx="526.7" cy="406.8" r="10.7"/><circle cx="287.1" cy="468.1" r="10.7"/><circle cx="106.4" cy="468.1" r="9.9"/><circle cx="165.9" cy="528.2" r="10.4"/><circle cx="136.3" cy="437.2" r="9.8"/><circle cx="196.6" cy="437.2" r="9.3"/><circle cx="45.4" cy="437.2" r="7.9"/><circle cx="316" cy="437.2" r="7.9"/><circle cx="436.8" cy="437.2" r="7.9"/><circle cx="406.9" cy="437.2" r="7.9"/><circle cx="226.6" cy="437.2" r="7.9"/><circle cx="496.9" cy="498.9" r="7.9"/><circle cx="467.2" cy="498.9" r="7.9"/><circle cx="376.3" cy="498.9" r="7.9"/><circle cx="196.6" cy="528.2" r="7.9"/><circle cx="76.4" cy="528.2" r="6.8"/><circle cx="496.9" cy="528.2" r="6.8"/><circle cx="406.9" cy="528.2" r="6.8"/><circle cx="467.2" cy="437.2" r="7.9"/><circle cx="496.9" cy="468.1" r="8.6"/><circle cx="526.7" cy="468.1" r="8.6"/><circle cx="165.9" cy="406.8" r="8.6"/><circle cx="165.9" cy="377.9" r="8.6"/><circle cx="257.1" cy="377.9" r="8.6"/><circle cx="406.9" cy="377.9" r="8.6"/><circle cx="526.7" cy="377.9" r="7.9"/><circle cx="196.6" cy="377.9" r="9.6"/><circle cx="106.4" cy="346.8" r="8.6"/><circle cx="165.9" cy="346.8" r="7.5"/><circle cx="196.6" cy="346.8" r="6.5"/><circle cx="45.4" cy="197.2" r="6.4"/><circle cx="45.4" cy="107" r="8.8"/><circle cx="257.1" cy="76.7" r="9.4"/><circle cx="346.4" cy="76.7" r="9.7"/><circle cx="287.1" cy="76.7" r="4.6"/><circle cx="287.1" cy="107" r="4.3"/><circle cx="406.9" cy="76.7" r="4.3"/><circle cx="526.7" cy="76.7" r="4.3"/><circle cx="287.1" cy="16.1" r="8.6"/><circle cx="526.7" cy="46.8" r="10.1"/><circle cx="316" cy="16.1" r="5.3"/><circle cx="376.3" cy="76.7" r="5.3"/><circle cx="406.9" cy="136.5" r="5.3"/><circle cx="316" cy="166.4" r="5.3"/><circle cx="346.4" cy="166.4" r="5.3"/><circle cx="346.4" cy="16.1" r="10.8"/><circle cx="287.1" cy="46.8" r="10.8"/><circle cx="316" cy="76.7" r="10.8"/><circle cx="316" cy="136.5" r="10.8"/><circle cx="436.8" cy="197.2" r="10.8"/><circle cx="346.4" cy="136.5" r="10.8"/><circle cx="106.4" cy="136.5" r="10.8"/><circle cx="376.3" cy="16.1" r="6.1"/><circle cx="467.2" cy="46.8" r="6.1"/><circle cx="406.9" cy="16.1" r="11.6"/><circle cx="467.2" cy="76.7" r="11.6"/><circle cx="436.8" cy="107" r="11.6"/><circle cx="467.2" cy="107" r="11.6"/><circle cx="526.7" cy="107" r="11.6"/><circle cx="526.7" cy="166.4" r="11.6"/><circle cx="496.9" cy="136.5" r="11.6"/><circle cx="467.2" cy="197.2" r="11.6"/><circle cx="376.3" cy="197.2" r="11.6"/><circle cx="226.6" cy="197.2" r="11.6"/><circle cx="196.6" cy="226.3" r="11.6"/><circle cx="287.1" cy="226.3" r="11.6"/><circle cx="76.4" cy="197.2" r="11.6"/><circle cx="106.4" cy="226.3" r="11.6"/><circle cx="136.3" cy="258.8" r="11.6"/><circle cx="76.4" cy="315.4" r="11.6"/><circle cx="76.4" cy="377.9" r="11.6"/><circle cx="136.3" cy="377.9" r="11.6"/><circle cx="136.3" cy="468.1" r="11.6"/><circle cx="226.6" cy="468.1" r="11.6"/><circle cx="526.7" cy="498.9" r="11.6"/><circle cx="226.6" cy="498.9" r="11.6"/><circle cx="165.9" cy="498.9" r="11.6"/><circle cx="106.4" cy="498.9" r="11.6"/><circle cx="76.4" cy="437.2" r="11.6"/><circle cx="136.3" cy="346.8" r="11.6"/><circle cx="196.6" cy="258.8" r="11.6"/><circle cx="436.8" cy="315.4" r="11.6"/><circle cx="496.9" cy="315.4" r="11.6"/><circle cx="496.9" cy="377.9" r="11.6"/><circle cx="316" cy="377.9" r="11.6"/><circle cx="526.7" cy="258.8" r="11.6"/><circle cx="196.6" cy="286.2" r="11.6"/><circle cx="316" cy="468.1" r="11.6"/><circle cx="346.4" cy="528.2" r="11.6"/><circle cx="316" cy="346.8" r="11.6"/><circle cx="406.9" cy="406.8" r="11.6"/><circle cx="467.2" cy="406.8" r="11.6"/><circle cx="526.7" cy="437.2" r="11.6"/><circle cx="496.9" cy="437.2" r="11.6"/><circle cx="346.4" cy="346.8" r="11.6"/><circle cx="346.4" cy="315.4" r="11.6"/><circle cx="406.9" cy="315.4" r="11.6"/><circle cx="287.1" cy="136.5" r="11.6"/><circle cx="165.9" cy="136.5" r="11.6"/><circle cx="76.4" cy="166.4" r="11.6"/><circle cx="106.4" cy="166.4" r="11.6"/><circle cx="257.1" cy="166.4" r="11.6"/><circle cx="257.1" cy="197.2" r="11.6"/><circle cx="136.3" cy="166.4" r="10"/><circle cx="45.4" cy="226.3" r="10"/><circle cx="257.1" cy="226.3" r="10"/><circle cx="76.4" cy="226.3" r="10"/><circle cx="226.6" cy="226.3" r="10"/><circle cx="376.3" cy="226.3" r="10"/><circle cx="15" cy="166.4" r="11.6"/><circle cx="15" cy="197.2" r="11.6"/><circle cx="376.3" cy="46.8" r="11.6"/><circle cx="436.8" cy="16.1" r="11.4"/><circle cx="467.2" cy="16.1" r="8.1"/><circle cx="436.8" cy="76.7" r="8.1"/><circle cx="496.9" cy="46.8" r="8.1"/><circle cx="496.9" cy="76.7" r="8.1"/><circle cx="346.4" cy="46.8" r="7.7"/><circle cx="376.3" cy="107" r="7.7"/><circle cx="346.4" cy="107" r="9.1"/><circle cx="496.9" cy="16.1" r="8.2"/><circle cx="436.8" cy="46.8" r="8.2"/><circle cx="526.7" cy="16.1" r="10.8"/><circle cx="406.9" cy="46.8" r="10.8"/><circle cx="196.6" cy="76.7" r="10.8"/></svg>